<svg width="14" height="14" viewBox="0 0 14 14" fill="none" xmlns="http://www.w3.org/2000/svg">
<path d="M2.13834 6.48183C1.89672 6.48251 1.66023 6.55158 1.45623 6.68106C1.25223 6.81053 1.08905 6.99512 0.985578 7.21347C0.882106 7.43181 0.842567 7.67499 0.871536 7.91487C0.900504 8.15475 0.996796 8.38152 1.14927 8.56896L4.3997 12.5507C4.51559 12.6946 4.66415 12.8088 4.83303 12.8838C5.00191 12.9587 5.18624 12.9923 5.3707 12.9817C5.76523 12.9605 6.12143 12.7495 6.34852 12.4025L13.1005 1.52847C13.1016 1.52667 13.1027 1.52486 13.1039 1.52309C13.1673 1.42581 13.1467 1.23304 13.016 1.11194C12.98 1.07869 12.9377 1.05314 12.8915 1.03687C12.8454 1.0206 12.7963 1.01395 12.7475 1.01734C12.6987 1.02073 12.651 1.03408 12.6076 1.05656C12.5641 1.07905 12.5257 1.1102 12.4947 1.1481C12.4923 1.15108 12.4898 1.15401 12.4872 1.1569L5.67776 8.85055C5.65185 8.87983 5.62038 8.90366 5.58518 8.92068C5.54998 8.93769 5.51175 8.94754 5.47271 8.94965C5.43367 8.95176 5.3946 8.94609 5.35777 8.93298C5.32094 8.91986 5.28708 8.89956 5.25816 8.87325L2.99824 6.8167C2.76353 6.60154 2.45675 6.48207 2.13834 6.48183Z" fill="#126849"/>
</svg>
