<svg width="22" height="22" viewBox="0 0 22 22" fill="none" xmlns="http://www.w3.org/2000/svg">
<path d="M3.36067 10.1858C2.98098 10.1869 2.60935 10.2954 2.28878 10.4989C1.9682 10.7024 1.71178 10.9924 1.54918 11.3355C1.38658 11.6786 1.32445 12.0608 1.36997 12.4377C1.4155 12.8147 1.56681 13.1711 1.80642 13.4656L6.91423 19.7227C7.09634 19.9488 7.32979 20.1282 7.59517 20.246C7.86056 20.3638 8.15022 20.4166 8.44009 20.4C9.06007 20.3667 9.6198 20.035 9.97667 19.4897L20.5869 2.40197C20.5886 2.39913 20.5904 2.3963 20.5923 2.39351C20.6919 2.24065 20.6596 1.93773 20.4541 1.74743C20.3976 1.69517 20.3311 1.65502 20.2585 1.62945C20.186 1.60388 20.109 1.59344 20.0322 1.59876C19.9555 1.60409 19.8806 1.62506 19.8123 1.6604C19.744 1.69574 19.6836 1.74469 19.6349 1.80425C19.6311 1.80893 19.6272 1.81354 19.6232 1.81808L8.92261 13.9081C8.8819 13.9541 8.83244 13.9916 8.77713 14.0183C8.72181 14.045 8.66174 14.0605 8.60039 14.0638C8.53904 14.0671 8.47765 14.0582 8.41977 14.0376C8.36189 14.017 8.30869 13.9851 8.26325 13.9438L4.71194 10.712C4.34311 10.3739 3.86103 10.1862 3.36067 10.1858Z" fill="#126849"/>
</svg>
