<svg width="132" height="45" viewBox="0 0 132 45" fill="none" xmlns="http://www.w3.org/2000/svg">
<path d="M59.176 35V12.408H64.2V35H59.176ZM63.016 35V30.648H75.4V35H63.016ZM63.016 25.56V21.368H74.28V25.56H63.016ZM63.016 16.728V12.408H75.24V16.728H63.016ZM84.5945 35.32C83.1225 35.32 81.8105 34.968 80.6585 34.264C79.5278 33.56 78.6318 32.6 77.9705 31.384C77.3305 30.168 77.0105 28.7813 77.0105 27.224C77.0105 25.6667 77.3305 24.28 77.9705 23.064C78.6318 21.848 79.5278 20.888 80.6585 20.184C81.8105 19.48 83.1225 19.128 84.5945 19.128C85.6612 19.128 86.6212 19.3307 87.4745 19.736C88.3492 20.1413 89.0638 20.7067 89.6185 21.432C90.1945 22.136 90.5145 22.9467 90.5785 23.864V30.424C90.5145 31.3413 90.2052 32.1733 89.6505 32.92C89.0958 33.6453 88.3812 34.232 87.5065 34.68C86.6318 35.1067 85.6612 35.32 84.5945 35.32ZM85.4585 30.904C86.1625 30.904 86.7705 30.7547 87.2825 30.456C87.7945 30.136 88.1998 29.6987 88.4985 29.144C88.7972 28.5893 88.9465 27.9493 88.9465 27.224C88.9465 26.4987 88.7972 25.8693 88.4985 25.336C88.2212 24.7813 87.8158 24.344 87.2825 24.024C86.7705 23.704 86.1732 23.544 85.4905 23.544C84.8078 23.544 84.1998 23.704 83.6665 24.024C83.1545 24.344 82.7385 24.7813 82.4185 25.336C82.1198 25.8907 81.9705 26.52 81.9705 27.224C81.9705 27.928 82.1198 28.5573 82.4185 29.112C82.7172 29.6667 83.1332 30.104 83.6665 30.424C84.1998 30.744 84.7972 30.904 85.4585 30.904ZM93.5545 35H88.7545V30.808L89.4905 27.032L88.6585 23.256V11.768H93.5545V35ZM104.17 35.352C102.57 35.352 101.119 35 99.8178 34.296C98.5378 33.5707 97.5244 32.5893 96.7778 31.352C96.0311 30.1147 95.6578 28.728 95.6578 27.192C95.6578 25.656 96.0311 24.28 96.7778 23.064C97.5244 21.848 98.5378 20.888 99.8178 20.184C101.098 19.4587 102.548 19.096 104.17 19.096C105.791 19.096 107.242 19.448 108.522 20.152C109.802 20.856 110.815 21.8267 111.562 23.064C112.308 24.28 112.682 25.656 112.682 27.192C112.682 28.728 112.308 30.1147 111.562 31.352C110.815 32.5893 109.802 33.5707 108.522 34.296C107.242 35 105.791 35.352 104.17 35.352ZM104.17 30.904C104.874 30.904 105.492 30.7547 106.026 30.456C106.559 30.136 106.964 29.6987 107.242 29.144C107.54 28.568 107.69 27.9173 107.69 27.192C107.69 26.4667 107.54 25.8373 107.242 25.304C106.943 24.7493 106.527 24.3227 105.994 24.024C105.482 23.704 104.874 23.544 104.17 23.544C103.487 23.544 102.879 23.704 102.346 24.024C101.812 24.3227 101.396 24.7493 101.098 25.304C100.799 25.8587 100.65 26.4987 100.65 27.224C100.65 27.928 100.799 28.568 101.098 29.144C101.396 29.6987 101.812 30.136 102.346 30.456C102.879 30.7547 103.487 30.904 104.17 30.904ZM122.287 35.352C120.687 35.352 119.237 35 117.935 34.296C116.655 33.5707 115.642 32.5893 114.895 31.352C114.149 30.1147 113.775 28.728 113.775 27.192C113.775 25.656 114.149 24.28 114.895 23.064C115.642 21.848 116.655 20.888 117.935 20.184C119.215 19.4587 120.666 19.096 122.287 19.096C123.909 19.096 125.359 19.448 126.639 20.152C127.919 20.856 128.933 21.8267 129.679 23.064C130.426 24.28 130.799 25.656 130.799 27.192C130.799 28.728 130.426 30.1147 129.679 31.352C128.933 32.5893 127.919 33.5707 126.639 34.296C125.359 35 123.909 35.352 122.287 35.352ZM122.287 30.904C122.991 30.904 123.61 30.7547 124.143 30.456C124.677 30.136 125.082 29.6987 125.359 29.144C125.658 28.568 125.807 27.9173 125.807 27.192C125.807 26.4667 125.658 25.8373 125.359 25.304C125.061 24.7493 124.645 24.3227 124.111 24.024C123.599 23.704 122.991 23.544 122.287 23.544C121.605 23.544 120.997 23.704 120.463 24.024C119.93 24.3227 119.514 24.7493 119.215 25.304C118.917 25.8587 118.767 26.4987 118.767 27.224C118.767 27.928 118.917 28.568 119.215 29.144C119.514 29.6987 119.93 30.136 120.463 30.456C120.997 30.7547 121.605 30.904 122.287 30.904Z" fill="#00261B"/>
<g clip-path="url(#clip0_201_14)">
<path d="M16.5484 22.8146C8.94366 13.3952 0 9.0874 0 9.0874C9.78377 9.734 17.7036 13.6224 23.0855 17.2486C19.5763 19.7476 17.3098 22.0194 16.5484 22.8146Z" fill="#00C18A"/>
<path d="M23.9956 17.8777C20.2064 20.5515 17.8436 22.9631 17.2047 23.6447C18.6137 25.4622 19.9701 27.4631 21.1953 29.6476C22.4292 31.8408 25.5708 31.8408 26.8047 29.6476C28.0299 27.4631 29.3863 25.4622 30.7953 23.6447C38.5313 13.6486 48 9.0874 48 9.0874C37.6387 9.76896 29.3776 14.0855 23.9956 17.8777Z" fill="#00C18A"/>
<path d="M31.9679 3.22427L27.3648 5.08544L26.2884 5.52233L23.9956 6.44854L21.6941 5.51359L20.6089 5.0767L16.0321 3.22427L23.9956 0L31.9679 3.22427Z" fill="#00261B"/>
<path d="M28.0824 5.81067L27.7148 5.95921L23.9956 7.46213L19.8913 5.80193L18.7187 5.33009V8.62426C18.7012 8.79902 18.6924 8.97378 18.6924 9.14853C18.6924 9.32329 18.7012 9.50679 18.7187 9.67281C18.7362 9.83009 18.7537 9.97863 18.7799 10.1272C19.2437 12.5738 21.3965 14.4262 23.9781 14.4262C26.5684 14.4262 28.7212 12.5738 29.1763 10.1272C29.2375 9.81261 29.2638 9.48057 29.2638 9.14853V5.32135L28.0824 5.81067Z" fill="#00261B"/>
<path d="M45.0333 12.6437C44.1407 13.2291 43.1344 13.9281 42.0405 14.7582V31.465C42.0405 32.1116 41.5854 32.6272 41.0253 32.6272H6.9834C6.42332 32.6272 5.96827 32.1029 5.96827 31.465V14.767C4.87437 13.9369 3.85924 13.2379 2.97538 12.6524C2.88786 12.8446 2.83536 13.0631 2.83536 13.299V31.4825C2.83536 33.8505 4.69935 35.7728 6.9834 35.7728H20.1101V41.8806H16.1896C15.3232 41.8806 14.6231 42.5796 14.6231 43.4446C14.6231 44.3097 15.3232 45.0087 16.1896 45.0087H21.6766H27.6273H32.6067C33.4731 45.0087 34.1732 44.3097 34.1732 43.4446C34.1732 42.5796 33.4731 41.8806 32.6067 41.8806H29.1938V35.7728H41.0253C43.3094 35.7728 45.1734 33.8505 45.1734 31.4825V13.2903C45.1734 13.0544 45.1209 12.8446 45.0333 12.6437ZM26.0521 41.8718H23.2343V35.7641H26.0521V41.8718Z" fill="#00261B"/>
</g>
<defs>
<clipPath id="clip0_201_14">
<rect width="48" height="45" fill="white"/>
</clipPath>
</defs>
</svg>
